# xmcd
#
# Track frame offsets:
#	150
#	19408
#	36648
#	62331
#	79065
#	100851
#	116901
#	140052
#	160647
#	177687
#	195477
#
# Disc length: 2834 seconds
# Revision: 0
# Processed by: cddbd v1.5.2PL0 Copyright (c) Steve Scherf et al.
# Submitted via: dBpowerAMP V12.0
#
DISCID=9a0b100b
DTITLE=Diane Durrett - Soul Suga
DYEAR=2015
DGENRE=Soul
TTITLE0=Show Up Sexy
TTITLE1=Butter's In The Skillet
TTITLE2=All Is Well
TTITLE3=Be Somebodys Angel
TTITLE4=Push The Push Back
TTITLE5=Let Go and Let Groove
TTITLE6=Sassy Larue
TTITLE7=Woohoo
TTITLE8=I Know Your Nothings
TTITLE9=Bright Side
TTITLE10=Let It Be
EXTD=
EXTT0=
EXTT1=
EXTT2=
EXTT3=
EXTT4=
EXTT5=
EXTT6=
EXTT7=
EXTT8=
EXTT9=
EXTT10=
PLAYORDER=
